<svg xmlns="http://www.w3.org/2000/svg" xmlns:xlink="http://www.w3.org/1999/xlink" width="62" height="62" viewBox="0 0 62 62">
  <defs>
    <clipPath id="clip-path">
      <rect width="62" height="62" fill="none"/>
    </clipPath>
  </defs>
  <g id="Group_4" data-name="Group 4" transform="translate(-1826 -46)">
    <g id="Repeat_Grid_1" data-name="Repeat Grid 1" transform="translate(1826 46)" clip-path="url(#clip-path)">
      <g transform="translate(-1826 -46)">
        <g id="Ellipse_10" data-name="Ellipse 10" transform="translate(1826 46)" fill="none" stroke="#ab90af" stroke-width="1.5">
          <circle cx="9" cy="9" r="9" stroke="none"/>
          <circle cx="9" cy="9" r="8.25" fill="none"/>
        </g>
      </g>
      <g transform="translate(-1804 -46)">
        <g id="Ellipse_10-2" data-name="Ellipse 10" transform="translate(1826 46)" fill="none" stroke="#ab90af" stroke-width="1.5">
          <circle cx="9" cy="9" r="9" stroke="none"/>
          <circle cx="9" cy="9" r="8.25" fill="none"/>
        </g>
      </g>
      <g transform="translate(-1782 -46)">
        <g id="Ellipse_10-3" data-name="Ellipse 10" transform="translate(1826 46)" fill="none" stroke="#ab90af" stroke-width="1.5">
          <circle cx="9" cy="9" r="9" stroke="none"/>
          <circle cx="9" cy="9" r="8.25" fill="none"/>
        </g>
      </g>
      <g transform="translate(-1826 -24)">
        <g id="Ellipse_10-4" data-name="Ellipse 10" transform="translate(1826 46)" fill="none" stroke="#ab90af" stroke-width="1.5">
          <circle cx="9" cy="9" r="9" stroke="none"/>
          <circle cx="9" cy="9" r="8.25" fill="none"/>
        </g>
      </g>
      <g transform="translate(-1804 -24)">
        <g id="Ellipse_10-5" data-name="Ellipse 10" transform="translate(1826 46)" fill="none" stroke="#ab90af" stroke-width="1.5">
          <circle cx="9" cy="9" r="9" stroke="none"/>
          <circle cx="9" cy="9" r="8.25" fill="none"/>
        </g>
      </g>
      <g transform="translate(-1782 -24)">
        <g id="Ellipse_10-6" data-name="Ellipse 10" transform="translate(1826 46)" fill="none" stroke="#ab90af" stroke-width="1.5">
          <circle cx="9" cy="9" r="9" stroke="none"/>
          <circle cx="9" cy="9" r="8.25" fill="none"/>
        </g>
      </g>
      <g transform="translate(-1826 -2)">
        <g id="Ellipse_10-7" data-name="Ellipse 10" transform="translate(1826 46)" fill="none" stroke="#ab90af" stroke-width="1.5">
          <circle cx="9" cy="9" r="9" stroke="none"/>
          <circle cx="9" cy="9" r="8.25" fill="none"/>
        </g>
      </g>
      <g transform="translate(-1804 -2)">
        <g id="Ellipse_10-8" data-name="Ellipse 10" transform="translate(1826 46)" fill="none" stroke="#ab90af" stroke-width="1.5">
          <circle cx="9" cy="9" r="9" stroke="none"/>
          <circle cx="9" cy="9" r="8.25" fill="none"/>
        </g>
      </g>
      <g transform="translate(-1782 -2)">
        <g id="Ellipse_10-9" data-name="Ellipse 10" transform="translate(1826 46)" fill="none" stroke="#ab90af" stroke-width="1.5">
          <circle cx="9" cy="9" r="9" stroke="none"/>
          <circle cx="9" cy="9" r="8.25" fill="none"/>
        </g>
      </g>
    </g>
  </g>
</svg>
